<?xml version="1.0" encoding="UTF-8" standalone="no"?>
<svg
   xmlns:dc="http://purl.org/dc/elements/1.1/"
   xmlns:cc="http://creativecommons.org/ns#"
   xmlns:rdf="http://www.w3.org/1999/02/22-rdf-syntax-ns#"
   xmlns:svg="http://www.w3.org/2000/svg"
   xmlns="http://www.w3.org/2000/svg"
   xmlns:sodipodi="http://sodipodi.sourceforge.net/DTD/sodipodi-0.dtd"
   xmlns:inkscape="http://www.inkscape.org/namespaces/inkscape"
   width="31.485416mm"
   height="15.875mm"
   viewBox="0 0 31.485416 15.875"
   version="1.1"
   id="svg6822"
   inkscape:version="1.0.1 (3bc2e813f5, 2020-09-07)"
   sodipodi:docname="button_left_image.svg">
  <defs
     id="defs6816" />
  <sodipodi:namedview
     id="base"
     pagecolor="#ffffff"
     bordercolor="#666666"
     borderopacity="1.0"
     inkscape:pageopacity="0.0"
     inkscape:pageshadow="2"
     inkscape:zoom="0.35"
     inkscape:cx="-387.64286"
     inkscape:cy="304.28571"
     inkscape:document-units="mm"
     inkscape:current-layer="layer1"
     inkscape:document-rotation="0"
     showgrid="false"
     inkscape:window-width="1404"
     inkscape:window-height="815"
     inkscape:window-x="1440"
     inkscape:window-y="32"
     inkscape:window-maximized="0"
     fit-margin-top="0"
     fit-margin-left="0"
     fit-margin-right="0"
     fit-margin-bottom="0" />
  <metadata
     id="metadata6819">
    <rdf:RDF>
      <cc:Work
         rdf:about="">
        <dc:format>image/svg+xml</dc:format>
        <dc:type
           rdf:resource="http://purl.org/dc/dcmitype/StillImage" />
        <dc:title></dc:title>
      </cc:Work>
    </rdf:RDF>
  </metadata>
  <g
     inkscape:label="Layer 1"
     inkscape:groupmode="layer"
     id="layer1"
     transform="translate(-62.87634,-67.657738)">
    <path
       fill-rule="evenodd"
       clip-rule="evenodd"
       d="m 70.81384,67.657738 c -4.383881,0 -7.9375,3.553619 -7.9375,7.9375 0,4.383881 3.553619,7.9375 7.9375,7.9375 H 94.361756 V 82.20453 c -3.529541,-0.138907 -6.35,-3.044825 -6.35,-6.609292 0,-3.564467 2.820459,-6.470385 6.35,-6.609291 v -1.328209 z"
       fill="#ffffff"
       fill-opacity="0.08"
       id="path2318"
       style="stroke-width:0.264583;fill:#ffffff;fill-opacity:0.07843138" />
    <path
       fill-rule="evenodd"
       clip-rule="evenodd"
       d="m 73.459673,72.949405 c -0.145521,0 -0.264583,0.118533 -0.264583,0.264583 v 2.116667 h -2.116667 c -0.145521,0 -0.264583,0.118533 -0.264583,0.264583 0,0.14605 0.119062,0.264583 0.264583,0.264583 h 2.116667 v 2.116667 c 0,0.14605 0.119062,0.264583 0.264583,0.264583 0.145521,0 0.264584,-0.118533 0.264584,-0.264583 v -2.116667 h 2.116666 c 0.145521,0 0.264584,-0.118533 0.264584,-0.264583 0,-0.14605 -0.119063,-0.264583 -0.264584,-0.264583 h -2.116666 v -2.116667 c 0,-0.14605 -0.119063,-0.264583 -0.264584,-0.264583 z"
       fill="#eaeaea"
       id="path2322"
       style="stroke-width:0.264583;fill:#ffffff;fill-opacity:1" />
  </g>
</svg>
