<?xml version="1.0" encoding="UTF-8" standalone="no"?>
<svg
   xmlns:dc="http://purl.org/dc/elements/1.1/"
   xmlns:cc="http://creativecommons.org/ns#"
   xmlns:rdf="http://www.w3.org/1999/02/22-rdf-syntax-ns#"
   xmlns:svg="http://www.w3.org/2000/svg"
   xmlns="http://www.w3.org/2000/svg"
   xmlns:sodipodi="http://sodipodi.sourceforge.net/DTD/sodipodi-0.dtd"
   xmlns:inkscape="http://www.inkscape.org/namespaces/inkscape"
   width="31.485416mm"
   height="15.875mm"
   viewBox="0 0 31.485416 15.875"
   version="1.1"
   id="svg2803"
   inkscape:version="1.0.1 (3bc2e813f5, 2020-09-07)"
   sodipodi:docname="button_left_pressed.svg">
  <defs
     id="defs2797" />
  <sodipodi:namedview
     id="base"
     pagecolor="#ffffff"
     bordercolor="#666666"
     borderopacity="1.0"
     inkscape:pageopacity="0.0"
     inkscape:pageshadow="2"
     inkscape:zoom="1.979899"
     inkscape:cx="-121.39852"
     inkscape:cy="73.232242"
     inkscape:document-units="mm"
     inkscape:current-layer="g2834"
     inkscape:document-rotation="0"
     showgrid="false"
     inkscape:window-width="1600"
     inkscape:window-height="818"
     inkscape:window-x="1440"
     inkscape:window-y="32"
     inkscape:window-maximized="1"
     fit-margin-top="0"
     fit-margin-left="0"
     fit-margin-right="0"
     fit-margin-bottom="0" />
  <metadata
     id="metadata2800">
    <rdf:RDF>
      <cc:Work
         rdf:about="">
        <dc:format>image/svg+xml</dc:format>
        <dc:type
           rdf:resource="http://purl.org/dc/dcmitype/StillImage" />
        <dc:title />
      </cc:Work>
    </rdf:RDF>
  </metadata>
  <g
     inkscape:label="Layer 1"
     inkscape:groupmode="layer"
     id="layer1"
     transform="translate(-1.7067717,-2.6011237)">
    <g
       id="g2834"
       transform="matrix(0.26458333,0,0,0.26458333,-229.94072,10.209392)"
       style="image-rendering:auto">
      <path
         fill-rule="evenodd"
         clip-rule="evenodd"
         d="m 905.51809,-28.75566 c -16.569,0 -30,13.431 -30,30 0,16.569 13.431,30 30,30 h 89 v -5.02 c -13.34,-0.525 -24,-11.508 -24,-24.98 0,-13.472 10.66,-24.455 24,-24.98 v -5.02 z"
         fill="#ffffff"
         fill-opacity="0.08"
         id="path2318"
         style="fill:#ffffff;fill-opacity:0.2" />
      <path
         fill-rule="evenodd"
         clip-rule="evenodd"
         d="m 915.51809,-8.75566 c -0.55,0 -1,0.448 -1,1 v 8 h -8 c -0.55,0 -1,0.448 -1,1 0,0.552 0.45,1 1,1 h 8 v 8 c 0,0.552 0.45,1 1,1 0.55,0 1,-0.448 1,-1 v -8 h 8 c 0.55,0 1,-0.448 1,-1 0,-0.552 -0.45,-1 -1,-1 h -8 v -8 c 0,-0.552 -0.45,-1 -1,-1 z"
         fill="#eaeaea"
         id="path2322"
         style="fill:#ffffff;fill-opacity:1" />
    </g>
  </g>
</svg>
