<?xml version="1.0" encoding="UTF-8" standalone="no"?>
<svg
   xmlns:dc="http://purl.org/dc/elements/1.1/"
   xmlns:cc="http://creativecommons.org/ns#"
   xmlns:rdf="http://www.w3.org/1999/02/22-rdf-syntax-ns#"
   xmlns:svg="http://www.w3.org/2000/svg"
   xmlns="http://www.w3.org/2000/svg"
   xmlns:sodipodi="http://sodipodi.sourceforge.net/DTD/sodipodi-0.dtd"
   xmlns:inkscape="http://www.inkscape.org/namespaces/inkscape"
   width="13.229167mm"
   height="21.166668mm"
   viewBox="0 0 13.229167 21.166668"
   version="1.1"
   id="svg9474"
   inkscape:version="1.0.1 (3bc2e813f5, 2020-09-07)"
   sodipodi:docname="button_up_pressed.svg">
  <defs
     id="defs9468" />
  <sodipodi:namedview
     id="base"
     pagecolor="#ffffff"
     bordercolor="#666666"
     borderopacity="1.0"
     inkscape:pageopacity="0.0"
     inkscape:pageshadow="2"
     inkscape:zoom="2.8"
     inkscape:cx="10.808595"
     inkscape:cy="56.639507"
     inkscape:document-units="mm"
     inkscape:current-layer="layer1"
     inkscape:document-rotation="0"
     showgrid="false"
     fit-margin-top="0"
     fit-margin-left="0"
     fit-margin-right="0"
     fit-margin-bottom="0"
     inkscape:window-width="1600"
     inkscape:window-height="818"
     inkscape:window-x="1440"
     inkscape:window-y="32"
     inkscape:window-maximized="1" />
  <metadata
     id="metadata9471">
    <rdf:RDF>
      <cc:Work
         rdf:about="">
        <dc:format>image/svg+xml</dc:format>
        <dc:type
           rdf:resource="http://purl.org/dc/dcmitype/StillImage" />
        <dc:title />
      </cc:Work>
    </rdf:RDF>
  </metadata>
  <g
     inkscape:label="Layer 1"
     inkscape:groupmode="layer"
     id="layer1"
     transform="translate(-34.017857,-23.434524)">
    <path
       d="m 34.017857,30.049107 c 0,-3.653102 2.961481,-6.614583 6.614583,-6.614583 3.653102,0 6.614584,2.961481 6.614584,6.614583 V 44.601191 H 34.017857 Z"
       fill="white"
       fill-opacity="0.2"
       id="path2254"
       style="fill:#ffffff;fill-opacity:0.2;stroke-width:0.264583" />
    <path
       fill-rule="evenodd"
       clip-rule="evenodd"
       d="m 40.63244,28.990774 c -0.14605,0 -0.264583,0.118533 -0.264583,0.264583 v 2.116667 H 38.25119 c -0.14605,0 -0.264583,0.118533 -0.264583,0.264583 0,0.14605 0.118533,0.264584 0.264583,0.264584 h 2.116667 v 2.116666 c 0,0.14605 0.118533,0.264584 0.264583,0.264584 0.14605,0 0.264584,-0.118534 0.264584,-0.264584 v -2.116666 h 2.116666 c 0.14605,0 0.264584,-0.118534 0.264584,-0.264584 0,-0.14605 -0.118534,-0.264583 -0.264584,-0.264583 h -2.116666 v -2.116667 c 0,-0.14605 -0.118534,-0.264583 -0.264584,-0.264583 z"
       fill="#eaeaea"
       id="path2258"
       style="stroke-width:0.264583;fill:#ffffff;fill-opacity:1" />
  </g>
</svg>
